# File created by Blade
# Date/Time:  Tue Jan 27 19:14:14 2015
#---------------------------------------------------------
:version 1.10
:name HOM
:units
  mass 1.0
  length 1.000000
  angle deg
:documentation
     Acclaim Skeleton File
:root
   axis xyz
   order TX TY TZ RX RY RZ
   position 0.000000 0.000000 0.000000
   orientation 0 0 0
:bonedata
   begin
      id 1
      name Spine_dum
      direction 0.000000 1.000000 0.000000
      length 6.116652
      axis 0.0 0.0 0.0 xyz
   end
   begin
      id 2
      name LeftUpLeg_dum
      direction 1.000000 0.000000 0.000000
      length 4.711765
      axis 0.0 0.0 0.0 xyz
   end
   begin
      id 3
      name RightUpLeg_dum
      direction -1.000000 0.000000 0.000000
      length 4.711765
      axis 0.0 0.0 0.0 xyz
   end
   begin
      id 4
      name Spine
      direction 0.000000 1.000000 0.000000
      length 0.000000
      axis 0.0 0.0 0.0 xyz
      dof rx ry rz
   end
   begin
      id 5
      name Spine_dum1
      direction 0.000000 1.000000 0.000000
      length 15.225563
      axis 0.0 0.0 0.0 xyz
   end
   begin
      id 6
      name Spine_dum2
      direction 0.000000 1.000000 0.000000
      length 8.977654
      axis 0.0 0.0 0.0 xyz
   end
   begin
      id 7
      name Spine_dum3
      direction 0.000000 1.000000 0.000000
      length 8.977654
      axis 0.0 0.0 0.0 xyz
   end
   begin
      id 8
      name Head
      direction 0.000000 1.000000 0.000000
      length 4.527550
      axis 0.0 0.0 0.0 xyz
      dof rx ry rz
   end
   begin
      id 9
      name LeftShoulder
      direction 1.000000 0.000000 0.000000
      length 7.110130
      axis 0.0 0.0 -90.0 xyz
      dof rx ry rz
   end
   begin
      id 10
      name LeftArm
      direction 1.000000 0.000000 0.000000
      length 10.398341
      axis 0.0 0.0 -90.0 xyz
      dof rx ry rz
   end
   begin
      id 11
      name LeftForeArm
      direction 1.000000 0.000000 0.000000
      length 8.888997
      axis 0.0 0.0 -90.0 xyz
      dof ry rz rx
   end
   begin
      id 12
      name LeftHand
      direction 0.000000 0.000000 0.000000
      length 0.000000
      axis 0.0 0.0 -90.0 xyz
      dof rx ry rz
   end
   begin
      id 13
      name LeftHand_dum1
      direction 0.000000 0.000000 0.000000
      length 0.000000
      axis 0.0 0.0 -90.0 xyz
   end
   begin
      id 14
      name LeftHand_dum2
      direction 1.000000 0.000000 0.000000
      length 3.937000
      axis 0.0 0.0 -90.0 xyz
   end
   begin
      id 15
      name LeftHandThumb1
      direction 0.000000 0.000000 1.000000
      length 3.937000
      axis 0.0 0.0 -90.0 xyz
      dof rx rz ry
   end
   begin
      id 16
      name RightShoulder
      direction -1.000000 0.000000 0.000000
      length 7.110130
      axis 0.0 0.0 90.0 xyz
      dof rx ry rz
   end
   begin
      id 17
      name RightArm
      direction -1.000000 0.000000 0.000000
      length 10.398341
      axis 0.0 0.0 90.0 xyz
      dof rx ry rz
   end
   begin
      id 18
      name RightForeArm
      direction -1.000000 0.000000 0.000000
      length 8.888997
      axis 0.0 0.0 90.0 xyz
      dof ry rz rx
   end
   begin
      id 19
      name RightHand
      direction 0.000000 0.000000 0.000000
      length 0.000000
      axis 0.0 0.0 90.0 xyz
      dof rx ry rz
   end
   begin
      id 20
      name RightHand_dum1
      direction 0.000000 0.000000 0.000000
      length 0.000000
      axis 0.0 0.0 90.0 xyz
   end
   begin
      id 21
      name RightHand_dum2
      direction -1.000000 0.000000 0.000000
      length 3.937000
      axis 0.0 0.0 90.0 xyz
   end
   begin
      id 22
      name RightHandThumb1
      direction 0.000000 0.000000 1.000000
      length 3.937000
      axis 0.0 0.0 90.0 xyz
      dof rx rz ry
   end
   begin
      id 23
      name LeftUpLeg
      direction 0.000000 -1.000000 0.000000
      length 15.510451
      axis 0.0 0.0 0.0 xyz
      dof rx ry rz
   end
   begin
      id 24
      name LeftLeg
      direction 0.000000 -1.000000 0.000000
      length 14.858061
      axis 0.0 0.0 0.0 xyz
      dof rx ry rz
   end
   begin
      id 25
      name LeftFoot
      direction 0.000000 -0.258819 0.965926
      length 5.128852
      axis 15.0 0.0 0.0 xyz
      dof rx ry rz
   end
   begin
      id 26
      name LeftToeBase
      direction 0.000000 0.000000 1.000000
      length 2.952750
      axis 0.0 0.0 0.0 xyz
      dof rx ry rz
   end
   begin
      id 27
      name RightUpLeg
      direction 0.000000 -1.000000 0.000000
      length 15.510451
      axis 0.0 0.0 0.0 xyz
      dof rx ry rz
   end
   begin
      id 28
      name RightLeg
      direction 0.000000 -1.000000 0.000000
      length 14.858061
      axis 0.0 0.0 0.0 xyz
      dof rx ry rz
   end
   begin
      id 29
      name RightFoot
      direction 0.000000 -0.258819 0.965926
      length 5.128852
      axis 15.0 0.0 0.0 xyz
      dof rx ry rz
   end
   begin
      id 30
      name RightToeBase
      direction 0.000000 0.000000 1.000000
      length 2.952750
      axis 0.0 0.0 0.0 xyz
      dof rx ry rz
   end
:hierarchy
   begin
      root Spine_dum LeftUpLeg_dum RightUpLeg_dum
      Spine_dum Spine
      LeftUpLeg_dum LeftUpLeg
      RightUpLeg_dum RightUpLeg
      Spine Spine_dum1 Spine_dum2 Spine_dum3
      Spine_dum1 Head
      Spine_dum2 LeftShoulder
      Spine_dum3 RightShoulder
      LeftShoulder LeftArm
      LeftArm LeftForeArm
      LeftForeArm LeftHand
      LeftHand LeftHand_dum1 LeftHand_dum2
      LeftHand_dum1 LeftHandThumb1
      RightShoulder RightArm
      RightArm RightForeArm
      RightForeArm RightHand
      RightHand RightHand_dum1 RightHand_dum2
      RightHand_dum1 RightHandThumb1
      LeftUpLeg LeftLeg
      LeftLeg LeftFoot
      LeftFoot LeftToeBase
      RightUpLeg RightLeg
      RightLeg RightFoot
      RightFoot RightToeBase
   end

# File created by Blade
# Date/Time:  Tue Jan 27 19:14:06 2015
# Frame Rate: 120.000 fps
#------------------------------------------------------
:FULLY-SPECIFIED
:DEGREES
1127
root 4.346987 32.408460 1.032606 -3.301504 18.055160 2.633947
Spine -2.570088 14.896028 -2.791886
Head 13.162776 -23.912903 -9.390613
LeftShoulder -5.062627 -9.336976 22.600339
LeftArm -6.554289 39.600312 -104.811598
LeftForeArm 5.506899 -0.000000 9.593609
LeftHand 10.126870 0.000000 -8.914518
LeftHandThumb1 -26.253704 0.000000 33.147579
RightShoulder -8.828508 22.746561 -53.779918
RightArm 96.043759 44.594690 133.568061
RightForeArm 41.441023 -0.000000 128.568921
RightHand 31.866365 0.000000 -13.113395
RightHandThumb1 -24.326973 -0.000000 -32.862282
LeftUpLeg 8.298325 -10.944653 -2.981385
LeftLeg 2.202749 -0.000000 -0.000000
LeftFoot -11.975801 5.290053 -21.204255
LeftToeBase 19.156847 -0.000000 -0.000000
RightUpLeg 13.330261 -7.557635 1.352727
RightLeg -2.745482 -0.000000 0.000000
RightFoot -15.830952 -21.648846 17.698160
RightToeBase 11.372109 -0.000000 -0.000000
1128
root 4.344505 32.407666 1.034708 -3.304951 18.032499 2.626073
Spine -2.553496 14.896779 -2.838206
Head 13.141099 -23.758193 -9.294878
LeftShoulder -5.099222 -9.389808 22.647171
LeftArm -6.556089 39.614575 -104.834898
LeftForeArm 5.467750 -0.000000 9.714346
LeftHand 10.081518 -0.000000 -9.081062
LeftHandThumb1 -26.253704 0.000000 33.147579
RightShoulder -8.885361 22.786826 -53.765387
RightArm 96.012906 44.548154 133.601583
RightForeArm 41.378452 0.000000 128.561063
RightHand 31.836440 -0.000000 -13.037685
RightHandThumb1 -24.326973 -0.000000 -32.862282
LeftUpLeg 8.315661 -10.900527 -2.964897
LeftLeg 2.168585 -0.000000 -0.000000
LeftFoot -11.953894 5.290878 -21.197347
LeftToeBase 19.008768 -0.000000 -0.000000
RightUpLeg 13.316805 -7.548535 1.361914
RightLeg -2.715306 -0.000000 0.000000
RightFoot -15.847510 -21.612412 17.700239
RightToeBase 11.370597 -0.000000 -0.000000
1129
root 4.343123 32.406874 1.038626 -3.324638 18.005524 2.606781
Spine -2.553817 14.909076 -2.855500
Head 13.111624 -23.811227 -9.210059
LeftShoulder -5.096387 -9.381756 22.673171
LeftArm -6.524804 39.671956 -104.843173
LeftForeArm 5.486362 -0.000000 9.816865
LeftHand 10.075867 0.000000 -8.834968
LeftHandThumb1 -26.253704 0.000000 33.147579
RightShoulder -8.882775 22.801739 -53.741598
RightArm 95.986468 44.531126 133.611436
RightForeArm 41.295779 -0.000000 128.568956
RightHand 31.845646 -0.000000 -13.014353
RightHandThumb1 -24.326973 -0.000000 -32.862282
LeftUpLeg 8.340289 -10.902487 -2.951280
LeftLeg 2.179571 -0.000000 -0.000000
LeftFoot -12.008875 5.302780 -21.202345
LeftToeBase 19.098702 -0.000000 -0.000000
RightUpLeg 13.322269 -7.535286 1.377667
RightLeg -2.691812 -0.000000 0.000000
RightFoot -15.838650 -21.575042 17.701242
RightToeBase 11.378835 -0.000000 -0.000000
1130
root 4.343223 32.406465 1.043087 -3.346125 17.989502 2.591145
Spine -2.575310 14.912630 -2.849775
Head 13.059223 -24.213526 -9.182732
LeftShoulder -5.053009 -9.358537 22.659119
LeftArm -6.500487 39.691042 -104.820030
LeftForeArm 5.452363 0.000000 9.930723
LeftHand 10.182747 -0.000000 -9.051905
LeftHandThumb1 -26.253704 0.000000 33.147579
RightShoulder -8.824491 22.811090 -53.740081
RightArm 95.953790 44.546005 133.623124
RightForeArm 41.176766 -0.000000 128.590093
RightHand 31.838307 0.000000 -12.993076
RightHandThumb1 -24.326973 -0.000000 -32.862282
LeftUpLeg 8.375639 -10.920302 -2.943646
LeftLeg 2.159250 -0.000000 -0.000000
LeftFoot -12.050337 5.361277 -21.086261
LeftToeBase 19.259542 -0.000000 -0.000000
RightUpLeg 13.336517 -7.515534 1.388128
RightLeg -2.673124 -0.000000 0.000000
RightFoot -15.844657 -21.539412 17.731531
RightToeBase 11.392833 -0.000000 -0.000000
1131
root 4.341666 32.406383 1.046641 -3.358103 17.983006 2.578392
Spine -2.584698 14.921820 -2.874997
Head 13.015521 -24.373757 -9.118362
LeftShoulder -5.023336 -9.357165 22.673180
LeftArm -6.492996 39.693399 -104.818297
LeftForeArm 5.482207 -0.000000 10.066564
LeftHand 10.151053 -0.000000 -8.994149
LeftHandThumb1 -26.253704 0.000000 33.147579
RightShoulder -8.838125 22.888830 -53.742385
RightArm 95.803873 44.601101 133.550817
RightForeArm 41.087058 -0.000000 128.616699
RightHand 31.803120 0.000000 -13.084567
RightHandThumb1 -24.326973 -0.000000 -32.862282
LeftUpLeg 8.392068 -10.897469 -2.928382
LeftLeg 2.152543 -0.000000 -0.000000
LeftFoot -12.020573 5.335820 -21.178732
LeftToeBase 18.982569 -0.000000 -0.000000
RightUpLeg 13.338018 -7.502598 1.400438
RightLeg -2.645907 -0.000000 0.000000
RightFoot -15.849578 -21.521451 17.728923
RightToeBase 11.332173 -0.000000 -0.000000
1132
root 4.340392 32.405938 1.050476 -3.373888 17.977049 2.563150
Spine -2.581211 14.923960 -2.899035
Head 12.952511 -24.453813 -9.027578
LeftShoulder -5.028490 -9.347870 22.699450
LeftArm -6.472008 39.720363 -104.812792
LeftForeArm 5.479139 -0.000000 10.177001
LeftHand 10.164958 -0.000000 -8.934935
LeftHandThumb1 -26.253704 0.000000 33.147579
RightShoulder -8.866700 22.906682 -53.722440
RightArm 95.722347 44.596790 133.518269
RightForeArm 41.045304 -0.000000 128.619869
RightHand 31.885181 0.000000 -13.127414
RightHandThumb1 -24.326973 -0.000000 -32.862282
LeftUpLeg 8.416528 -10.922442 -2.918138
LeftLeg 2.146735 -0.000000 -0.000000
LeftFoot -12.089915 5.375127 -21.091552
LeftToeBase 19.228724 -0.000000 -0.000000
RightUpLeg 13.339854 -7.502289 1.411103
RightLeg -2.616085 -0.000000 0.000000
RightFoot -15.861396 -21.475757 17.767569
RightToeBase 11.375406 -0.000000 -0.000000
